HIERARCHY
ROOT Hips
{
 OFFSET 0.000000 0.000000 0.000000
 CHANNELS 6 Xposition Yposition Zposition Yrotation Xrotation Zrotation
 JOINT Chest
 {
  OFFSET 0.000000 9.585900 0.002600
  CHANNELS 3 Yrotation Xrotation Zrotation
  JOINT Chest2
  {
   OFFSET 0.000000 9.601200 -0.005300
   CHANNELS 3 Yrotation Xrotation Zrotation
   JOINT Chest3
   {
    OFFSET 0.000000 9.561800 0.000000
    CHANNELS 3 Yrotation Xrotation Zrotation
    JOINT Chest4
    {
     OFFSET 0.000000 9.552100 0.000000
     CHANNELS 3 Yrotation Xrotation Zrotation
     JOINT Neck
     {
      OFFSET 0.000000 14.453000 0.000000
      CHANNELS 3 Yrotation Xrotation Zrotation
      JOINT Head
      {
       OFFSET 0.000000 8.936500 -0.011300
       CHANNELS 3 Yrotation Xrotation Zrotation
       End Site
       {
        OFFSET 0.000000 17.073600 -0.006000
       }
      }
     }
     JOINT RightCollar
     {
      OFFSET -2.921100 9.558500 0.000000
      CHANNELS 3 Yrotation Xrotation Zrotation
      JOINT RightShoulder
      {
       OFFSET -13.519700 0.000000 0.000000
       CHANNELS 3 Yrotation Xrotation Zrotation
       JOINT RightElbow
       {
        OFFSET 0.000000 -29.696600 0.000000
        CHANNELS 3 Yrotation Xrotation Zrotation
        JOINT RightWrist
        {
         OFFSET 0.000000 -24.004700 0.000000
         CHANNELS 3 Yrotation Xrotation Zrotation
         End Site
         {
          OFFSET 0.000000 -17.728500 0.000000
         }
        }
       }
      }
     }
     JOINT LeftCollar
     {
      OFFSET 2.921100 9.558500 0.000000
      CHANNELS 3 Yrotation Xrotation Zrotation
      JOINT LeftShoulder
      {
       OFFSET 13.519700 0.000000 0.000000
       CHANNELS 3 Yrotation Xrotation Zrotation
       JOINT LeftElbow
       {
        OFFSET 0.000000 -29.696600 0.000000
        CHANNELS 3 Yrotation Xrotation Zrotation
        JOINT LeftWrist
        {
         OFFSET 0.000000 -24.004700 0.000000
         CHANNELS 3 Yrotation Xrotation Zrotation
         End Site
         {
          OFFSET 0.000000 -17.728500 0.000000
         }
        }
       }
      }
     }
    }
   }
  }
 }
 JOINT RightHip
 {
  OFFSET -7.771700 -0.012900 -0.001300
  CHANNELS 3 Yrotation Xrotation Zrotation
  JOINT RightKnee
  {
   OFFSET 0.000000 -40.869800 0.001200
   CHANNELS 3 Yrotation Xrotation Zrotation
   JOINT RightAnkle
   {
    OFFSET 0.000000 -39.717900 0.002100
    CHANNELS 3 Yrotation Xrotation Zrotation
    JOINT RightToe
    {
     OFFSET 0.000000 -4.965400 11.033500
     CHANNELS 3 Yrotation Xrotation Zrotation
     End Site
     {
      OFFSET 0.000000 -1.423100 5.872300
     }
    }
   }
  }
 }
 JOINT LeftHip
 {
  OFFSET 7.771700 -0.012900 -0.001300
  CHANNELS 3 Yrotation Xrotation Zrotation
  JOINT LeftKnee
  {
   OFFSET 0.000000 -40.869800 0.001200
   CHANNELS 3 Yrotation Xrotation Zrotation
   JOINT LeftAnkle
   {
    OFFSET 0.000000 -39.717900 0.002100
    CHANNELS 3 Yrotation Xrotation Zrotation
    JOINT LeftToe
    {
     OFFSET 0.000000 -4.965400 11.033500
     CHANNELS 3 Yrotation Xrotation Zrotation
     End Site
     {
      OFFSET 0.000000 -1.423100 5.872300
     }
    }
   }
  }
 }
}
MOTION
Frames: 15
Frame Time: 0.008333
0.000000 85.388000 0.000000 0.000000 -5.767877 0.000000 0.000000 11.653817 0.000000 0.000000 -5.885947 0.000000 0.000000 -0.000000 0.000000 0.000000 -0.000000 0.000000 0.000000 12.528835 0.000000 0.000000 0.711642 0.000000 0.000000 -0.000000 0.000000 0.000000 0.000000 -90.000000 0.000000 -2.309062 0.000000 0.000000 2.309062 0.000000 0.000000 -0.000000 0.000000 0.000000 -0.000000 90.000000 0.000000 -2.309062 0.000000 0.000000 2.309062 0.000000 0.000000 8.520406 0.000000 0.000000 1.905762 0.000000 -0.000000 -4.658285 0.000000 0.000000 -0.000000 0.000000 0.000000 8.520406 0.000000 0.000000 1.905762 0.000000 -0.000000 -4.658285 0.000000 0.000000 -0.000000 0.000000
-58.965925 46.457484 3.479898 176.929087 -33.125448 -2.783006 -0.009264 18.865035 2.066911 -0.061862 2.199762 0.277126 -0.141040 3.627382 0.439112 -0.233742 16.333060 2.035836 -1.218169 26.246171 -0.067245 -2.167368 12.849492 0.138663 0.552774 3.263047 -1.278873 6.138266 -7.797571 -14.790899 -41.711533 -52.077628 90.298773 -3.399513 7.447260 -20.158379 -2.033585 1.537761 2.330054 -4.347561 -2.828556 9.731291 57.392920 -73.664863 -94.766588 0.576132 9.224399 14.711862 0.791979 -54.086878 -8.274236 -164.587901 78.312115 -155.961995 -7.898812 -13.810692 -4.558725 0.108972 -0.330186 0.045039 -1.147130 -55.736484 10.636018 -114.386852 82.229377 -118.513764 6.238880 -6.712837 4.299939 -0.017553 0.333619 0.024875
-58.952986 46.456681 3.488861 176.900292 -33.124065 -2.805902 -0.028124 18.850779 2.065941 -0.108648 2.186284 0.254802 -0.088326 3.643134 0.459471 -0.241881 16.341319 2.027605 -1.159191 26.217242 -0.060185 -2.029737 12.783434 0.124880 0.536928 3.253741 -1.310082 6.236998 -7.673477 -14.772036 -41.681688 -52.056775 90.310039 -3.461502 7.417402 -20.647690 -2.016146 1.558632 2.367761 -4.369676 -2.620888 9.543754 57.044278 -73.556499 -94.424594 0.711137 9.312470 14.918555 0.743325 -54.094510 -8.182935 -164.544466 78.332232 -155.908948 -7.923193 -13.783298 -4.578591 0.123555 -0.338068 0.045725 -1.221630 -55.737707 10.735427 -114.371986 82.236553 -118.491308 6.225699 -6.699690 4.253881 -0.003042 0.334255 0.035505
-58.940160 46.459523 3.492627 176.858003 -33.167624 -2.811676 -0.028799 18.876642 2.059754 -0.104133 2.181388 0.254695 -0.091759 3.650172 0.458017 -0.231919 16.348925 2.026991 -1.109704 26.189484 -0.058307 -1.894858 12.719571 0.119735 0.503333 3.244152 -1.344767 6.311641 -7.606526 -14.743902 -41.566634 -52.056342 90.232749 -3.490787 7.488099 -20.988787 -2.019891 1.582224 2.435863 -4.345548 -2.452549 9.344714 56.623626 -73.374427 -94.056900 0.821420 9.409788 14.975073 0.731004 -54.053645 -8.116010 -164.493314 78.337857 -155.856542 -7.889967 -13.770186 -4.589790 0.117956 -0.337201 0.043871 -1.296088 -55.690978 10.846488 -114.354602 82.231895 -118.505186 6.244802 -6.679349 4.246499 -0.019274 0.322069 0.016648
-58.926932 46.460817 3.498781 176.819147 -33.199070 -2.816579 -0.028096 18.884030 2.053722 -0.102260 2.176801 0.252548 -0.063060 3.673839 0.473608 -0.264473 16.328036 2.004348 -1.041296 26.170748 -0.046866 -1.771493 12.663238 0.120975 0.476775 3.250428 -1.372891 6.375796 -7.542024 -14.719105 -41.541169 -52.078681 90.225503 -3.478939 7.691707 -21.193326 -1.982420 1.610610 2.458700 -4.318857 -2.304220 9.227710 56.176185 -73.131932 -93.703651 0.899428 9.521636 14.912710 0.719977 -54.025338 -8.052341 -164.494618 78.356335 -155.848831 -7.901265 -13.754984 -4.601954 0.110599 -0.334376 0.042595 -1.324811 -55.659866 10.913212 -114.317442 82.228081 -118.460423 6.244866 -6.659124 4.215348 -0.010722 0.313218 0.018518
-58.909616 46.460442 3.507648 176.765145 -33.216798 -2.833849 -0.026092 18.855386 2.051357 -0.073803 2.199706 0.267419 -0.072254 3.667620 0.468264 -0.271310 16.318974 1.989786 -0.940714 26.100118 -0.035337 -1.671842 12.678907 0.144898 0.460288 3.268561 -1.395961 6.374293 -7.402032 -14.812411 -41.536400 -52.135525 90.330347 -3.458849 7.848943 -21.235673 -1.940685 1.644338 2.516237 -4.256711 -2.180251 9.119153 55.741823 -72.857591 -93.395378 0.955770 9.645279 14.760199 0.674926 -54.013951 -7.919261 -164.499661 78.392162 -155.857177 -7.957320 -13.730339 -4.617270 0.128216 -0.325451 0.052573 -1.397442 -55.643285 11.035439 -114.299768 82.219397 -118.447778 6.261217 -6.642992 4.186846 -0.009859 0.302770 0.018789
-58.893799 46.461006 3.514089 176.726616 -33.251385 -2.845663 -0.028300 18.846570 2.042662 -0.038736 2.235208 0.289535 -0.100621 3.643586 0.449352 -0.260256 16.314670 1.986460 -0.884939 26.097793 -0.018137 -1.561788 12.637324 0.160541 0.460573 3.294143 -1.401085 6.334731 -7.331947 -14.924000 -41.458309 -52.182394 90.370402 -3.423989 8.004890 -21.176387 -1.909351 1.668388 2.565811 -4.179367 -2.074883 9.054517 55.349780 -72.582464 -93.154084 0.999654 9.766901 14.547774 0.648478 -53.983993 -7.829568 -164.479191 78.410485 -155.833440 -7.982122 -13.712813 -4.626504 0.126477 -0.324531 0.052445 -1.460616 -55.607514 11.126707 -114.276682 82.217475 -118.429335 6.298915 -6.625290 4.151371 -0.021342 0.290439 0.023232
-58.877892 46.461069 3.520346 176.691439 -33.287455 -2.855254 -0.031944 18.833219 2.028108 -0.031587 2.248938 0.298963 -0.098984 3.643731 0.448282 -0.235677 16.331115 1.993078 -0.847626 26.066717 -0.008984 -1.468589 12.623634 0.188059 0.443508 3.300511 -1.415341 6.299702 -7.293286 -15.027348 -41.480808 -52.166447 90.496988 -3.317911 8.221874 -21.081759 -1.892794 1.667713 2.606168 -4.139538 -2.015218 9.015404 54.952517 -72.325194 -92.875494 1.022131 9.876213 14.295018 0.619472 -53.953058 -7.741642 -164.447129 78.426225 -155.802363 -8.002894 -13.698381 -4.635059 0.126469 -0.321376 0.052238 -1.522177 -55.574372 11.213720 -114.300246 82.208773 -118.455454 6.311132 -6.603956 4.119591 -0.034289 0.277760 0.019246
-58.859052 46.460870 3.526363 176.665761 -33.326419 -2.881884 -0.031926 18.826745 2.030054 -0.026507 2.254546 0.302023 -0.129110 3.593724 0.415896 -0.172861 16.400223 2.034581 -0.814556 26.026195 0.000829 -1.392724 12.636305 0.227453 0.365291 3.248960 -1.494773 6.329689 -7.222440 -15.073228 -41.356775 -52.193424 90.500360 -3.266383 8.313249 -20.955137 -1.868807 1.656046 2.646118 -4.046143 -1.916681 9.017882 54.760892 -72.143060 -92.867550 1.019517 9.973279 14.016006 0.558294 -53.918660 -7.622895 -164.344745 78.432035 -155.709810 -7.997661 -13.685882 -4.642284 0.113712 -0.321653 0.051053 -1.634850 -55.540381 11.329361 -114.296732 82.198469 -118.448946 6.352202 -6.560797 4.058134 -0.029590 0.252758 0.023259
-58.839682 46.462512 3.528514 176.607695 -33.393878 -2.885515 -0.010771 18.844366 2.023167 -0.058143 2.205794 0.269635 -0.090484 3.640838 0.444190 -0.186380 16.348537 1.993254 -0.736214 26.083645 0.062259 -1.328183 12.647690 0.274262 0.360389 3.288199 -1.499040 6.363153 -7.173055 -15.156826 -41.236771 -52.199207 90.496649 -3.228071 8.357337 -20.835800 -1.807251 1.722259 2.726011 -3.968047 -1.834413 9.054196 54.716386 -72.019761 -92.973787 1.001357 10.078721 13.708474 0.535278 -53.856757 -7.516626 -164.262597 78.438485 -155.634322 -7.991666 -13.673915 -4.650993 0.104635 -0.322276 0.049488 -1.642865 -55.478292 11.394325 -114.303530 82.183327 -118.419084 6.363081 -6.512725 3.973616 -0.011984 0.219908 0.055296
-58.817455 46.459926 3.536462 176.582843 -33.418609 -2.918372 -0.020507 18.819773 2.025681 -0.055720 2.204641 0.268548 -0.075945 3.652378 0.450402 -0.166289 16.361029 1.998475 -0.725781 26.065769 0.082700 -1.281286 12.669488 0.330462 0.331782 3.255933 -1.531352 6.422192 -7.138097 -15.261497 -41.182296 -52.163054 90.527173 -3.187021 8.385282 -20.742177 -1.791389 1.698407 2.762505 -3.933224 -1.769213 9.103309 54.799885 -71.943629 -93.122678 0.953362 10.201787 13.364362 0.484863 -53.837143 -7.418179 -164.425283 78.474611 -155.781595 -8.008250 -13.674450 -4.665347 0.089631 -0.292612 0.037971 -1.719087 -55.460534 11.484900 -114.405703 82.189424 -118.490700 6.382735 -6.452624 3.897896 -0.043143 0.179522 0.068274
-58.796144 46.457399 3.543154 176.554370 -33.448936 -2.934780 -0.034480 18.801296 2.011958 -0.053150 2.203114 0.267395 -0.071766 3.650029 0.448554 -0.155459 16.342369 1.983668 -0.694127 26.096244 0.129025 -1.251269 12.698841 0.394304 0.330156 3.265817 -1.542051 6.520169 -7.107774 -15.372053 -41.152345 -52.106766 90.556434 -3.159428 8.375452 -20.677473 -1.761179 1.631759 2.821172 -3.927707 -1.632495 9.157929 54.692734 -71.892781 -93.166777 0.889237 10.233757 13.133192 0.446823 -53.811128 -7.317304 -164.336875 78.484729 -155.692568 -8.023935 -13.664744 -4.680961 0.081722 -0.288160 0.043754 -1.818277 -55.440752 11.590034 -114.558860 82.198807 -118.651282 6.416454 -6.407495 3.835717 -0.044001 0.177321 0.055615
-58.769676 46.458037 3.545006 176.466779 -33.515444 -2.939684 0.008797 18.818451 2.019603 -0.050785 2.201239 0.266092 -0.078544 3.633783 0.438508 -0.134303 16.336123 1.975792 -0.670706 26.129730 0.177547 -1.236628 12.734098 0.464980 0.336148 3.270430 -1.550485 6.650621 -7.080232 -15.486258 -41.141885 -52.034541 90.581928 -3.144076 8.340184 -20.634676 -1.730666 1.622970 2.857339 -3.951647 -1.569808 9.252943 54.738131 -71.893186 -93.309647 0.854507 10.286516 12.901492 0.400991 -53.752368 -7.140604 -164.103387 78.484712 -155.480766 -8.027948 -13.657387 -4.695343 0.091317 -0.278742 0.053093 -1.877396 -55.377324 11.735711 -114.609421 82.190385 -118.717454 6.460878 -6.366063 3.797796 -0.076335 0.140881 0.059927
-58.742922 46.457384 3.548264 176.402611 -33.565921 -2.953331 0.029898 18.821771 2.020448 -0.048750 2.199075 0.264741 -0.075237 3.630371 0.436369 -0.099098 16.359460 1.990205 -0.691686 26.122119 0.204957 -1.235811 12.776776 0.542448 0.337388 3.263690 -1.556799 6.788794 -7.090355 -15.623494 -41.144053 -51.955264 90.603998 -3.181276 8.261533 -20.650622 -1.723090 1.586538 2.872656 -4.009690 -1.542722 9.363662 54.822872 -71.879991 -93.456369 0.823432 10.333045 12.689175 0.367059 -53.706966 -7.016247 -163.994132 78.488916 -155.370960 -8.007528 -13.646789 -4.709055 0.096179 -0.264915 0.045270 -1.964548 -55.327904 11.879286 -114.744090 82.198676 -118.845607 6.442380 -6.341747 3.732062 -0.053688 0.125541 0.067789
-58.709196 46.457838 3.550609 176.337985 -33.622005 -3.004100 0.090200 18.852771 2.085553 -0.071653 2.171368 0.243968 -0.072409 3.626878 0.434453 -0.097758 16.338767 1.973555 -0.648543 26.182123 0.252731 -1.267385 12.813877 0.645477 0.349833 3.240393 -1.567920 6.959875 -7.049988 -15.719716 -41.151114 -51.873595 90.623346 -3.225924 8.186858 -20.674914 -1.692384 1.567674 2.908114 -4.088817 -1.500654 9.481837 54.898272 -71.845496 -93.587093 0.818373 10.363336 12.520323 0.247166 -53.653348 -6.788156 -163.787790 78.495776 -155.180727 -7.998929 -13.633811 -4.728752 0.096222 -0.259699 0.044470 -2.112232 -55.270991 12.084321 -115.079501 82.228662 -119.135912 6.355800 -6.337625 3.612460 -0.019385 0.138974 0.079768
